# xmcd CD database file
#
# Track frame offsets:
#	150
#	19912
#	38855
#	51452
#	64157
#	79570
#	94610
#	108832
#	120367
#	135242
#	150800
#	164955
#	179017
#	192440
#	206075
#	217062
#
# Disc length: 3066 seconds
#
# Revision: 0
# Processed by: cddbd v1.4PL0 Copyright (c) Steve Scherf et al.
# Submitted via: CDex 1.40Release
#
DISCID=de0bf810
DTITLE=Kimmie Rhodes - Collection
DYEAR=1900
DGENRE=Country
TTITLE0=Daddy's Song
TTITLE1=1000 Magicians
TTITLE2=Sweetheart You're A Lot Like Texas
TTITLE3=What A Love's Supposed To Be
TTITLE4=Earth Shakin' Thing
TTITLE5=It'll Do
TTITLE6=You'll Take Care Of You
TTITLE7=I'm His Little Chevrolet
TTITLE8=How Long
TTITLE9=Texas Blues
TTITLE10=Man In The Moon
TTITLE11=Just Someone I Used To Know
TTITLE12=Contrabandistas
TTITLE13=No Next Time
TTITLE14=Buried In The Blues
TTITLE15=Rock Your Baby
EXTD=ID3G: 2
EXTT0=
EXTT1=
EXTT2=
EXTT3=
EXTT4=
EXTT5=
EXTT6=
EXTT7=
EXTT8=
EXTT9=
EXTT10=
EXTT11=
EXTT12=
EXTT13=
EXTT14=
EXTT15=
PLAYORDER=
